<svg width="167" height="136" viewBox="0 0 167 136" fill="none" xmlns="http://www.w3.org/2000/svg">
<path d="M149 33L161 39L151 44L139 38L149 33Z" fill="white"/>
<path d="M139 48L151 54V44L139 38V48Z" fill="white"/>
<path d="M151 54L161 49V39L151 44V54Z" fill="white"/>
<path d="M151 54L161 49V39M151 54L139 48V38M151 54V44M161 39L149 33L139 38M161 39L151 44M151 44L139 38" stroke="#212121" stroke-width="2"/>
<path d="M122.671 35.2732C121.18 36.0179 120.574 37.8323 121.318 39.3259C122.061 40.8194 123.871 41.4265 125.362 40.6818C125.425 40.6522 125.488 40.6208 125.551 40.5875L137.329 34.7268C138.82 33.9821 139.426 32.1677 138.682 30.6741C138.201 29.7067 137.272 29.1112 136.272 29.0141C135.728 28.9612 135.163 29.0558 134.638 29.3182L130.312 31.4709L122.68 35.2689C122.677 35.2703 122.674 35.2718 122.671 35.2732Z" fill="white"/>
<path d="M122.671 35.2732C121.18 36.0179 120.574 37.8323 121.318 39.3259C122.061 40.8194 123.871 41.4265 125.362 40.6818M122.671 35.2732C124.161 34.5286 125.972 35.1357 126.715 36.6292C127.458 38.1228 126.852 39.9372 125.362 40.6818M122.671 35.2732L130.312 31.4709M125.362 40.6818C125.425 40.6522 125.488 40.6208 125.551 40.5875M125.362 40.6818L125.551 40.5875M130.313 31.4556C130.312 31.4607 130.312 31.4658 130.312 31.4709M131.362 37.6819C133.216 36.8138 135.049 34.3655 135.873 31.2381C136.072 30.4832 136.203 29.7365 136.272 29.0141M136.272 29.0141C137.272 29.1112 138.201 29.7067 138.682 30.6741C139.426 32.1677 138.82 33.9821 137.329 34.7268L125.551 40.5875M136.272 29.0141C135.728 28.9612 135.163 29.0558 134.638 29.3182L130.312 31.4709M125.551 40.5875C127.339 39.6459 129.077 37.2588 129.873 34.2381C130.122 33.2923 130.266 32.3593 130.312 31.4709" stroke="#B9B9B9" stroke-width="2"/>
<path d="M127 54L164 72.5V57.5L127 39V50.819V54Z" fill="white"/>
<path d="M113 37.495C113 41.4255 115.249 45.0187 118.81 46.7765L127 50.819V39L130 37.4913L120.606 32.8543C119.11 32.1159 117.501 32.1533 116.15 32.74C115.968 32.8193 115.79 32.9088 115.617 33.0077C114.087 33.8858 113 35.5122 113 37.495Z" fill="white"/>
<path d="M120.606 32.8543L130 37.4913L127 39L164 57.5L154 42.5L137 34L134 35.4913L124.606 30.8543C123.043 30.083 121.358 30.1581 119.971 30.8218L116.15 32.74C117.501 32.1533 119.11 32.1159 120.606 32.8543Z" fill="white"/>
<path d="M116.15 32.74C117.501 32.1533 119.11 32.1159 120.606 32.8543L130 37.4913L127 39M116.15 32.74C115.968 32.8193 115.79 32.9088 115.617 33.0077C114.087 33.8858 113 35.5122 113 37.495C113 41.4255 115.249 45.0187 118.81 46.7765L127 50.819M116.15 32.74L119.971 30.8218C121.358 30.1581 123.043 30.083 124.606 30.8543L134 35.4913L137 34L154 42.5L164 57.5M164 57.5L127 39M164 57.5V72.5L127 54V50.819M127 39V50.819" stroke="#212121" stroke-width="2"/>
<path d="M44.6707 74.2732C43.1802 75.0179 42.5744 76.8323 43.3175 78.3259C44.0606 79.8194 45.8713 80.4265 47.3618 79.6818C48.8523 78.9372 49.4582 77.1228 48.7151 75.6292C47.9719 74.1357 46.1612 73.5286 44.6707 74.2732Z" fill="white"/>
<path d="M48.7151 75.6292C49.4582 77.1228 48.8523 78.9372 47.3618 79.6818L47.5643 79.5807C49.3474 78.6344 51.0783 76.2515 51.8724 73.238C52.1231 72.2868 52.2668 71.3484 52.3122 70.4555L44.6707 74.2732C46.1612 73.5286 47.9719 74.1357 48.7151 75.6292Z" fill="white"/>
<path d="M119.329 43.7268C120.82 42.9821 121.426 41.1677 120.682 39.6741C120.201 38.7067 119.272 38.1112 118.272 38.0141C117.728 37.9612 117.163 38.0558 116.638 38.3182L112.311 40.4798L106.312 43.4773L100.312 46.4749L94.3118 49.4724L88.312 52.47L82.3121 55.4675L76.3122 58.4651L70.3124 61.4626L64.3125 64.4602L58.3126 67.4577L52.3122 70.4555C52.2668 71.3484 52.1231 72.2868 51.8724 73.238C51.0783 76.2515 49.3474 78.6344 47.5643 79.5807L119.329 43.7268Z" fill="white"/>
<path d="M44.6707 74.2732C43.1802 75.0179 42.5744 76.8323 43.3175 78.3259C44.0606 79.8194 45.8713 80.4265 47.3618 79.6818M44.6707 74.2732C46.1612 73.5286 47.9719 74.1357 48.7151 75.6292C49.4582 77.1228 48.8523 78.9372 47.3618 79.6818M44.6707 74.2732L52.3122 70.4555M47.3618 79.6818L47.5643 79.5807M47.3618 79.6818C47.4294 79.6502 47.4969 79.6165 47.5643 79.5807M52.3122 70.4555C52.2668 71.3484 52.1231 72.2868 51.8724 73.238C51.0783 76.2515 49.3474 78.6344 47.5643 79.5807M52.3122 70.4555L58.3126 67.4577M53.3623 76.6819C55.2155 75.8138 57.0487 73.3655 57.8729 70.2381C58.1234 69.2876 58.267 68.35 58.3126 67.4577M58.3127 67.4556L58.3126 67.4577M59.3623 73.6819C61.2155 72.8138 63.0487 70.3655 63.8729 67.2381C64.1231 66.2885 64.2668 65.3517 64.3125 64.4602M64.3127 64.4556L64.3125 64.4602M65.3623 70.6819C67.2155 69.8138 69.0487 67.3655 69.8729 64.2381C70.1229 63.2893 70.2665 62.3534 70.3124 61.4626M70.3127 61.4556C70.3126 61.4579 70.3125 61.4603 70.3124 61.4626M71.3623 67.6819C73.2155 66.8138 75.0487 64.3655 75.8729 61.2381C76.1227 60.2902 76.2663 59.3552 76.3122 58.4651M76.3127 58.4556C76.3126 58.4587 76.3124 58.4619 76.3122 58.4651M77.3623 64.6819C79.2155 63.8138 81.0487 61.3655 81.8729 58.2381C82.1225 57.2911 82.266 56.3569 82.3121 55.4675M82.3127 55.4556C82.3125 55.4596 82.3123 55.4635 82.3121 55.4675M83.3623 61.6819C85.2155 60.8138 87.0487 58.3655 87.8729 55.2381C88.1222 54.2919 88.2657 53.3586 88.312 52.47M88.3127 52.4556C88.3125 52.4604 88.3122 52.4652 88.312 52.47M89.3623 58.6819C91.2155 57.8138 93.0487 55.3655 93.8729 52.2381C94.122 51.2928 94.2655 50.3603 94.3118 49.4724M94.3127 49.4556C94.3124 49.4612 94.3121 49.4668 94.3118 49.4724M95.3623 55.6819C97.2155 54.8138 99.0487 52.3655 99.8729 49.2381C100.122 48.2937 100.265 47.362 100.312 46.4749M100.313 46.4556C100.312 46.462 100.312 46.4684 100.312 46.4749M101.362 52.6819C103.216 51.8138 105.049 49.3655 105.873 46.2381C106.122 45.2946 106.265 44.3637 106.312 43.4773M106.313 43.4556C106.312 43.4628 106.312 43.4701 106.312 43.4773M107.362 49.6819C109.216 48.8138 111.049 46.3655 111.873 43.2381C112.121 42.2954 112.265 41.3655 112.311 40.4798M112.313 40.4556C112.312 40.4636 112.312 40.4717 112.311 40.4798M113.362 46.6819C115.216 45.8138 117.049 43.3655 117.873 40.2381C118.072 39.4832 118.203 38.7365 118.272 38.0141M118.272 38.0141C119.272 38.1112 120.201 38.7067 120.682 39.6741C121.426 41.1677 120.82 42.9821 119.329 43.7268L47.5643 79.5807M118.272 38.0141C117.728 37.9612 117.163 38.0558 116.638 38.3182L112.311 40.4798M112.311 40.4798L106.312 43.4773M106.312 43.4773L100.312 46.4749M100.312 46.4749L94.3118 49.4724M94.3118 49.4724L88.312 52.47M88.312 52.47L82.3121 55.4675M82.3121 55.4675L76.3122 58.4651M76.3122 58.4651L70.3124 61.4626M70.3124 61.4626L64.3125 64.4602M64.3125 64.4602L58.3126 67.4577" stroke="#B9B9B9" stroke-width="1.5"/>
<path d="M129 43L141 49L71 84L59 78L129 43Z" fill="white"/>
<path d="M59 88L71 94V84L59 78V88Z" fill="white"/>
<path d="M71 94L141 59V49L71 84V94Z" fill="white"/>
<path d="M71 94L141 59V49M71 94L59 88V78M71 94V84M141 49L129 43L59 78M141 49L71 84M71 84L59 78" stroke="#212121" stroke-width="2"/>
<path d="M47 94L64 102.5V87.5L47 79V90.819V94Z" fill="white"/>
<path d="M64 102.5L94 107.5V92.5L64 87.5V102.5Z" fill="white"/>
<path d="M40.606 72.8543L50 77.4913L47 79L64 87.5L94 92.5L57 74L54 75.4913L44.606 70.8543C43.0434 70.083 41.3575 70.1581 39.971 70.8218L36.1504 72.74C37.5014 72.1533 39.1102 72.1159 40.606 72.8543Z" fill="white"/>
<path d="M33 77.495C33 81.4255 35.2494 85.0187 38.8104 86.7765L47 90.819V79L50 77.4913L40.606 72.8543C39.1102 72.1159 37.5014 72.1533 36.1504 72.74C35.9676 72.8193 35.7896 72.9088 35.6172 73.0077C34.0865 73.8858 33 75.5122 33 77.495Z" fill="white"/>
<path d="M36.1504 72.74C37.5014 72.1533 39.1102 72.1159 40.606 72.8543L50 77.4913L47 79M36.1504 72.74C35.9676 72.8193 35.7896 72.9088 35.6172 73.0077C34.0865 73.8858 33 75.5122 33 77.495C33 81.4255 35.2494 85.0187 38.8104 86.7765L47 90.819M36.1504 72.74L39.971 70.8218C41.3575 70.1581 43.0434 70.083 44.606 70.8543L54 75.4913L57 74L94 92.5M64 102.5L94 107.5V92.5M64 102.5L47 94V90.819M64 102.5V87.5M94 92.5L64 87.5M64 87.5L47 79M47 79V90.819" stroke="#212121" stroke-width="2"/>
<path d="M24.6707 84.2732C23.1802 85.0179 22.5744 86.8323 23.3175 88.3259C24.0606 89.8194 25.8714 90.4265 27.3618 89.6818C27.4251 89.6522 27.4883 89.6208 27.5514 89.5875L39.3293 83.7268C40.8198 82.9821 41.4256 81.1677 40.6825 79.6741C40.2012 78.7067 39.2719 78.1112 38.2719 78.0141C37.7281 77.9612 37.1632 78.0558 36.6382 78.3182L32.3119 80.4709L24.6795 84.2689C24.6766 84.2703 24.6737 84.2718 24.6707 84.2732Z" fill="white"/>
<path d="M24.6707 84.2732C23.1802 85.0179 22.5744 86.8323 23.3175 88.3259C24.0606 89.8194 25.8714 90.4265 27.3618 89.6818M24.6707 84.2732C26.1612 83.5286 27.9719 84.1357 28.7151 85.6292C29.4582 87.1228 28.8523 88.9372 27.3618 89.6818M24.6707 84.2732L32.3119 80.4709M27.3618 89.6818C27.4251 89.6522 27.4883 89.6208 27.5514 89.5875M27.3618 89.6818L27.5514 89.5875M32.3127 80.4556C32.3125 80.4607 32.3122 80.4658 32.3119 80.4709M33.3623 86.6819C35.2155 85.8138 37.0487 83.3655 37.8729 80.2381C38.0718 79.4832 38.2034 78.7365 38.2719 78.0141M38.2719 78.0141C39.2719 78.1112 40.2012 78.7067 40.6825 79.6741C41.4256 81.1677 40.8198 82.9821 39.3293 83.7268L27.5514 89.5875M38.2719 78.0141C37.7281 77.9612 37.1632 78.0558 36.6382 78.3182L32.3119 80.4709M27.5514 89.5875C29.339 88.6459 31.0768 86.2588 31.8729 83.2381C32.1221 82.2923 32.2656 81.3593 32.3119 80.4709" stroke="#B9B9B9" stroke-width="1.5"/>
<path d="M3.41158 85.9073C2.44825 84.0404 3.23362 81.7724 5.16575 80.8415C5.17261 80.8382 5.17948 80.835 5.18635 80.8317C7.11453 79.9161 9.44852 80.6762 10.4084 82.5365C11.3717 84.4035 10.5864 86.6715 8.65424 87.6023C6.72212 88.5331 4.3749 87.7743 3.41158 85.9073Z" fill="white"/>
<path d="M28.3005 97.9073C27.3371 96.0404 28.1225 93.7724 30.0546 92.8416C30.0615 92.8383 30.0683 92.835 30.0752 92.8317C32.0034 91.9161 34.3374 92.6762 35.2973 94.5365C36.2606 96.4035 35.4752 98.6715 33.5431 99.6023C31.611 100.533 29.2638 99.7743 28.3005 97.9073Z" fill="white"/>
<path d="M15.856 91.9073C14.8927 90.0404 15.6781 87.7724 17.6102 86.8416C17.6171 86.8382 17.6239 86.835 17.6308 86.8317C19.559 85.9161 21.893 86.6762 22.8529 88.5365C23.8162 90.4035 23.0308 92.6715 21.0987 93.6023C19.1666 94.5331 16.8193 93.7743 15.856 91.9073Z" fill="white"/>
<path d="M10.4084 82.5365C11.3717 84.4035 10.5864 86.6715 8.65424 87.6023L17.5666 83.3396L21.2345 85.1081L17.6308 86.8317C19.559 85.9161 21.893 86.6762 22.8529 88.5365C23.8162 90.4035 23.0308 92.6715 21.0987 93.6023L30.0018 89.3351L33.679 91.1081L30.0752 92.8317C32.0034 91.9161 34.3374 92.6762 35.2973 94.5365C36.2606 96.4035 35.4752 98.6715 33.5431 99.6023L42.8343 95.1585C44.7664 94.2276 45.5517 91.9596 44.5884 90.0927C44.1886 89.3179 43.5505 88.734 42.8027 88.3824L17.9459 76.3977C16.8854 75.8876 15.5987 75.8476 14.4569 76.3977L5.18635 80.8317C7.11453 79.9161 9.44852 80.6762 10.4084 82.5365Z" fill="white"/>
<path d="M5.16575 80.8415C3.23362 81.7724 2.44825 84.0404 3.41158 85.9073C4.3749 87.7742 6.72212 88.5331 8.65424 87.6023M5.16575 80.8415L5.18635 80.8317M5.16575 80.8415C5.17261 80.8382 5.17948 80.835 5.18635 80.8317M8.65424 87.6023C10.5864 86.6715 11.3717 84.4035 10.4084 82.5365C9.44852 80.6762 7.11453 79.9161 5.18635 80.8317M8.65424 87.6023L17.5666 83.3396L21.2345 85.1081M30.0546 92.8416C28.1225 93.7724 27.3371 96.0404 28.3005 97.9073C29.2638 99.7743 31.611 100.533 33.5431 99.6023M30.0546 92.8416C30.0615 92.8383 30.0683 92.835 30.0752 92.8317M30.0546 92.8416L30.0752 92.8317M33.5431 99.6023C35.4752 98.6715 36.2606 96.4035 35.2973 94.5365C34.3374 92.6762 32.0034 91.9161 30.0752 92.8317M33.5431 99.6023L42.8343 95.1585C44.7664 94.2276 45.5517 91.9596 44.5884 90.0927C44.1886 89.3179 43.5505 88.734 42.8027 88.3824L17.9459 76.3977C16.8854 75.8876 15.5987 75.8476 14.4569 76.3977L5.18635 80.8317M33.679 91.1081L36.5124 89.7529M33.679 91.1081L30.0018 89.3351L21.0987 93.6023M33.679 91.1081L30.0752 92.8317M17.6102 86.8416C15.6781 87.7724 14.8927 90.0404 15.856 91.9073C16.8193 93.7743 19.1666 94.5331 21.0987 93.6023M17.6102 86.8416C17.6171 86.8382 17.6239 86.835 17.6308 86.8317M17.6102 86.8416L17.6308 86.8317M21.0987 93.6023C23.0308 92.6715 23.8162 90.4035 22.8529 88.5365C21.893 86.6762 19.559 85.9161 17.6308 86.8317M24.0679 83.7529L21.2345 85.1081M21.2345 85.1081L17.6308 86.8317" stroke="#B9B9B9" stroke-width="1.5"/>
</svg>
