<svg width="22" height="24" viewBox="0 0 22 24" fill="none" xmlns="http://www.w3.org/2000/svg">
<path d="M2.02933 21.9176C-0.313759 19.5745 -0.313759 15.7754 2.02933 13.4323L13.9087 1.55291C15.5467 -0.0850257 18.2105 -0.085026 19.8484 1.55294C21.4864 3.19088 21.4864 5.85464 19.8484 7.49261L7.969 19.372C7.03618 20.3048 5.50774 20.3048 4.57492 19.372C3.64204 18.4391 3.64207 16.9107 4.57492 15.9779L15.6058 4.94699C15.6612 4.89003 15.7274 4.84466 15.8005 4.8135C15.8736 4.78233 15.9522 4.76601 16.0317 4.76547C16.1112 4.76494 16.19 4.78019 16.2635 4.81037C16.3371 4.84054 16.4039 4.88501 16.4601 4.94122C16.5163 4.99743 16.5608 5.06424 16.5909 5.13778C16.6211 5.21131 16.6364 5.29011 16.6358 5.3696C16.6353 5.44908 16.619 5.52766 16.5878 5.60079C16.5566 5.67391 16.5112 5.74011 16.4543 5.79555L5.42343 16.8264C4.94601 17.3038 4.94598 18.046 5.42343 18.5235C5.90085 19.0009 6.64305 19.0009 7.12047 18.5235L18.9999 6.64409C20.1824 5.46152 20.1824 3.584 18.9999 2.40143C17.8173 1.21889 15.9398 1.21889 14.7572 2.40143L2.87784 14.2808C0.990181 16.1685 0.990181 19.1814 2.87784 21.069C4.76553 22.9567 7.7784 22.9567 9.66606 21.0691L20.6969 10.0382C20.7523 9.98113 20.8186 9.93564 20.8917 9.90439C20.9649 9.87313 21.0435 9.85673 21.123 9.85614C21.2026 9.85555 21.2815 9.87079 21.3551 9.90096C21.4287 9.93113 21.4955 9.97563 21.5518 10.0319C21.608 10.0881 21.6525 10.155 21.6827 10.2286C21.7129 10.3022 21.7281 10.3811 21.7275 10.4606C21.7269 10.5402 21.7105 10.6188 21.6793 10.692C21.648 10.7651 21.6025 10.8313 21.5455 10.8867L10.5146 21.9176C8.17152 24.2607 4.37242 24.2607 2.02933 21.9176Z" fill="black"/>
</svg>
