<svg width="134" height="137" viewBox="0 0 134 137" fill="none" xmlns="http://www.w3.org/2000/svg">
<path d="M132.071 69.0322L67.0354 101.76" stroke="#B9B9B9" stroke-width="1.5"/>
<path d="M132.071 69.0322L67.0354 101.76" stroke="#B9B9B9" stroke-width="1.5"/>
<path d="M132.071 69.0322L67.0354 101.76" stroke="#B9B9B9" stroke-width="1.5"/>
<path d="M132.071 69.0322L67.0354 101.76" stroke="#B9B9B9" stroke-width="1.5"/>
<path d="M132.071 83.8976L67.0354 116.625" stroke="#B9B9B9" stroke-width="1.5"/>
<path d="M132.071 83.8976L67.0354 116.625" stroke="#B9B9B9" stroke-width="1.5"/>
<path d="M132.071 83.8976L67.0354 116.625" stroke="#B9B9B9" stroke-width="1.5"/>
<path d="M132.071 83.8976L67.0354 116.625" stroke="#B9B9B9" stroke-width="1.5"/>
<path d="M79.1135 121.276V85.252L86.5461 81.5117V117.536L79.1135 121.276Z" stroke="#B9B9B9" stroke-width="1.5"/>
<path d="M95.8369 112.861V76.8364L103.27 73.0961V109.12L95.8369 112.861Z" stroke="#B9B9B9" stroke-width="1.5"/>
<path d="M112.56 104.445V68.4207L119.993 64.6804V100.705L112.56 104.445Z" stroke="#B9B9B9" stroke-width="1.5"/>
<path d="M88.5833 88.7587V93.583L77.0762 99.3736V94.5493L88.5833 88.7587ZM105.307 80.343V85.1673L93.7996 90.958V86.1337L105.307 80.343ZM110.523 77.718L122.03 71.9274V76.7517L110.523 82.5423V77.718ZM122.03 86.7926V91.6169L110.523 97.4076V92.5833L122.03 86.7926ZM93.7996 100.999L105.307 95.2083V100.033L93.7996 105.823V100.999ZM88.5833 103.624V108.448L77.0762 114.239V109.415L88.5833 103.624Z" fill="white" stroke="#212121" stroke-width="1.5"/>
<path d="M1.99994 69.0322L67.0354 101.76" stroke="#B9B9B9" stroke-width="1.5"/>
<path d="M1.99994 69.0322L67.0354 101.76" stroke="#B9B9B9" stroke-width="1.5"/>
<path d="M1.99994 69.0322L67.0354 101.76" stroke="#B9B9B9" stroke-width="1.5"/>
<path d="M1.99994 69.0322L67.0354 101.76" stroke="#B9B9B9" stroke-width="1.5"/>
<path d="M1.99994 83.8976L67.0354 116.625" stroke="#B9B9B9" stroke-width="1.5"/>
<path d="M1.99994 83.8976L67.0354 116.625" stroke="#B9B9B9" stroke-width="1.5"/>
<path d="M1.99994 83.8976L67.0354 116.625" stroke="#B9B9B9" stroke-width="1.5"/>
<path d="M1.99994 83.8976L67.0354 116.625" stroke="#B9B9B9" stroke-width="1.5"/>
<path d="M54.9575 121.276V85.252L47.5249 81.5117V117.536L54.9575 121.276Z" stroke="#B9B9B9" stroke-width="1.5"/>
<path d="M38.2341 112.861V76.8364L30.8015 73.0961V109.12L38.2341 112.861Z" stroke="#B9B9B9" stroke-width="1.5"/>
<path d="M21.5107 104.445V68.4207L14.0781 64.6804V100.705L21.5107 104.445Z" stroke="#B9B9B9" stroke-width="1.5"/>
<path d="M45.4875 88.7587V93.583L56.9946 99.3736V94.5493L45.4875 88.7587ZM28.7641 80.343V85.1673L40.2712 90.958V86.1337L28.7641 80.343ZM23.5478 77.718L12.0407 71.9274V76.7517L23.5478 82.5423V77.718ZM12.0407 86.7926V91.6169L23.5478 97.4076V92.5833L12.0407 86.7926ZM40.2712 100.999L28.7641 95.2083V100.033L40.2712 105.823V100.999ZM45.4875 103.624V108.448L56.9946 114.239V109.415L45.4875 103.624Z" fill="white" stroke="#212121" stroke-width="1.5"/>
<path d="M23.3689 55.8156V34.4468L40.0923 42.8085V64.1773M45.6668 66.9645V45.5957L62.3902 53.9574V75.3262" stroke="#B9B9B9" stroke-width="1.5"/>
<path d="M110.702 55.8156V34.4468L93.9787 42.8085V64.1773M88.4043 66.9645V45.5957L71.6809 53.9574V75.3262" stroke="#B9B9B9" stroke-width="1.5"/>
<path d="M67.0355 1.92908L115.348 26.0851L67.0355 50.2411L18.7234 26.0851L67.0355 1.92908Z" fill="white"/>
<path d="M67.0355 7.50354L104.199 26.0851L67.0355 44.6667L29.8723 26.0851L67.0355 7.50354Z" fill="white"/>
<path d="M67.0355 132L132.071 99.2724V53.9572M67.0355 132L2 99.2724V53.9572M67.0355 132V86.6847M132.071 53.9572L67.0355 86.6847M132.071 53.9572L115.348 45.5415M67.0355 86.6847L2 53.9572M2 53.9572L18.7234 45.5415M67.0355 78.1135L115.348 53.9574V45.5415M67.0355 78.1135L18.7234 53.9574V45.5415M67.0355 78.1135V50.2411M115.348 26.0851L67.0355 1.92908L18.7234 26.0851M115.348 26.0851L67.0355 50.2411M115.348 26.0851V45.5415M67.0355 50.2411L18.7234 26.0851M18.7234 26.0851V45.5415M67.0355 7.50355L104.199 26.0851L67.0355 44.6667M67.0355 7.50355L29.8723 26.0851L67.0355 44.6667M67.0355 7.50355V44.6667" stroke="#212121" stroke-width="2"/>
</svg>
