<svg width="67" height="80" viewBox="0 0 67 80" fill="none" xmlns="http://www.w3.org/2000/svg">
<g clip-path="url(#clip0)">
<path d="M7.24618 71.5621C6.83153 70.7657 6.16847 70.3014 5.12373 70.3014C3.38297 70.3014 2.38745 71.8277 2.38745 73.9831C2.38745 76.073 3.39922 77.6647 5.13999 77.6647C6.18472 77.6647 6.79857 77.2171 7.41148 76.1891L9.36862 77.3499C8.5723 78.9913 7.18024 79.9696 5.07359 79.9696C2.03921 79.9696 -0.00012207 77.648 -0.00012207 73.9831C-0.00012207 70.4505 2.12232 67.9969 5.1567 67.9969C7.34554 67.9969 8.67213 69.0584 9.40252 70.5675L7.24618 71.5621Z" fill="#212121"/>
<path d="M16.1879 79.9696C13.1535 79.9696 11.0803 77.7478 11.0803 73.9993C11.0803 70.2522 13.1865 67.9969 16.2214 67.9969C19.2386 67.9969 21.3118 70.2192 21.3118 73.9668C21.3118 77.7144 19.2061 79.9696 16.1879 79.9696ZM16.1717 70.3014C14.5465 70.3014 13.4679 71.6113 13.4679 73.9668C13.4679 76.321 14.5962 77.6643 16.2214 77.6643C17.846 77.6643 18.9237 76.3544 18.9237 73.9993C18.9237 71.6452 17.7968 70.3014 16.1717 70.3014Z" fill="#212121"/>
<path d="M23.6537 79.7871V68.179H31.7135V70.4509H25.9753V79.7871H23.6537Z" fill="#212121"/>
<path d="M38.8805 68.179C41.0694 68.179 42.877 69.3895 42.877 71.8606C42.877 74.5467 41.0856 75.6746 38.6818 75.6746H36.1275V79.7871H33.8059V68.179H38.8805ZM38.8309 73.4194C39.9086 73.4194 40.489 72.9221 40.489 71.9103C40.489 70.8985 39.8255 70.4342 38.7974 70.4342H36.1275V73.4194H38.8309Z" fill="#212121"/>
<path d="M52.8132 79.7868L51.9008 77.2005H47.6559L46.744 79.7868H44.2561L48.7011 68.1786H50.9554L55.367 79.7868H52.8132ZM50.3592 72.8883C50.1266 72.2085 49.8944 71.512 49.7784 71.0811C49.6627 71.512 49.4301 72.2085 49.1984 72.8883L48.4522 74.9945H51.1045L50.3592 72.8883Z" fill="#212121"/>
<path d="M64.6075 79.7871V74.9122H59.8481V79.7871H57.5265V68.179H59.8481V72.623H64.6075V68.179H66.9291V79.7871H64.6075Z" fill="#212121"/>
<path d="M59.2527 14.2298C59.197 14.1982 59.1394 14.1708 59.0809 14.1476L47.1653 7.26811C47.1333 7.24583 47.1026 7.22307 47.0687 7.20357C47.0348 7.18407 46.9995 7.16875 46.9652 7.1525L34.8866 0.178755C34.8857 0.178291 34.8852 0.177826 34.8848 0.177826C34.8151 0.13743 34.7422 0.106784 34.6684 0.0798532C34.3011 -0.052016 33.8902 -0.0213703 33.5452 0.177826L9.1805 14.2451C8.86662 14.4262 8.6442 14.7243 8.55505 15.066C8.52394 15.1798 8.50769 15.2982 8.50769 15.4189V43.5535C8.50769 44.0322 8.76307 44.4742 9.17725 44.7134C9.23297 44.7459 9.29055 44.7723 9.34905 44.796L21.2776 51.6829C21.3055 51.702 21.332 51.7219 21.3612 51.7391C21.3905 51.7558 21.4216 51.7693 21.4518 51.7837L33.5452 58.7658C33.7527 58.8856 33.984 58.9455 34.2147 58.9455C34.446 58.9455 34.6772 58.8856 34.8848 58.7658L59.2527 44.699C59.6673 44.4594 59.9222 44.0173 59.9222 43.5386V15.3901C59.9222 14.9114 59.6673 14.4694 59.2527 14.2298ZM21.3612 21.2848C20.9466 21.5244 20.6917 21.9664 20.6917 22.4447V35.7467L11.1896 41.2318V16.1902L32.8756 3.65843V14.631L21.3612 21.2848ZM33.5447 28.3115C33.1305 28.5511 32.8756 28.9926 32.8756 29.4713V42.7725L23.3704 48.2594V23.2173L45.06 10.6842V21.6576L33.5447 28.3115ZM57.2403 42.7655L35.5543 55.2861V30.244L57.2403 17.7127V42.7655Z" fill="#212121"/>
</g>
<defs>
<clipPath id="clip0">
<rect width="66.9292" height="79.9697" fill="white"/>
</clipPath>
</defs>
</svg>
