<svg width="134" height="136" viewBox="0 0 134 136" fill="none" xmlns="http://www.w3.org/2000/svg">
<path d="M62.39 123.709C62.39 123.709 72.6289 118.553 85.617 112.04M62.39 123.709L85.617 89.7416M62.39 123.709V133C62.39 133 72.6289 127.844 85.617 121.33V112.04M62.39 123.709V101.411M85.617 112.04V89.7416M104.199 102.737L127.425 68.8936M104.199 102.737C112.756 98.4616 121.075 94.3205 127.425 91.1915M104.199 102.737V112.028C112.756 107.752 121.075 103.611 127.425 100.482V91.1915M104.199 102.737V80.4389M127.425 91.1915L127.425 68.8936M62.39 101.411C62.39 101.411 72.6289 96.2556 85.617 89.7416M62.39 101.411V77.2553L85.617 65.6418V89.7416M104.199 80.4389C112.756 76.1637 121.075 72.0227 127.425 68.8936M104.199 80.4389V56.351L127.425 44.7375L127.425 68.8936" stroke="#B9B9B9" stroke-width="1.5"/>
<path d="M43.8085 115.347C43.8085 115.347 54.0474 110.192 67.0354 103.678M43.8085 115.347L67.0354 81.38M43.8085 115.347V124.638C43.8085 124.638 54.0474 119.483 67.0354 112.969V103.678M43.8085 115.347V93.0496M67.0354 103.678V81.38M85.617 94.375L108.844 60.5319M85.617 94.375C94.1743 90.0999 102.494 85.9588 108.844 82.8298M85.617 94.375V103.666C94.1743 99.3906 102.494 95.2496 108.844 92.1205V82.8298M85.617 94.375V72.0772M108.844 82.8298L108.844 60.5319M43.8085 93.0496C43.8085 93.0496 54.0474 87.8939 67.0354 81.38M43.8085 93.0496V68.8936L67.0354 57.2801V81.38M85.617 72.0772C94.1743 67.802 102.494 63.661 108.844 60.5319M85.617 72.0772V47.9893L108.844 36.3759L108.844 60.5319" stroke="#B9B9B9" stroke-width="1.5"/>
<path d="M25.2269 106.986C25.2269 106.986 35.4658 101.83 48.4539 95.3161M25.2269 106.986L48.4539 73.0183M25.2269 106.986V116.277C25.2269 116.277 35.4658 111.121 48.4539 104.607V95.3161M25.2269 106.986V84.6879M48.4539 95.3161V73.0183M67.0354 86.0133L90.2624 52.1702M67.0354 86.0133C75.5928 81.7382 83.9122 77.5972 90.2624 74.4681M67.0354 86.0133V95.3041C75.5928 91.0289 83.9122 86.8879 90.2624 83.7588V74.4681M67.0354 86.0133V63.7155M90.2624 74.4681L90.2624 52.1702M25.2269 84.6879C25.2269 84.6879 35.4658 79.5322 48.4539 73.0183M25.2269 84.6879V60.5319L48.4539 48.9184V73.0183M67.0354 63.7155C75.5928 59.4403 83.9122 55.2993 90.2624 52.1702M67.0354 63.7155V39.6276L90.2624 28.0142L90.2624 52.1702" stroke="#B9B9B9" stroke-width="1.5"/>
<path d="M6.64539 98.6241C6.64539 98.6241 16.8843 93.4683 29.8723 86.9544M6.64539 98.6241L29.8723 64.6566M6.64539 98.6241V107.915C6.64539 107.915 16.8843 102.759 29.8723 96.2452V86.9544M6.64539 98.6241V76.3262M29.8723 86.9544V64.6566M48.4539 77.6516L71.6808 43.8085M48.4539 77.6516C57.0113 73.3765 65.3306 69.2355 71.6808 66.1064M48.4539 77.6516V86.9424C57.0113 82.6673 65.3306 78.5262 71.6808 75.3971V66.1064M48.4539 77.6516V55.3538M71.6808 66.1064L71.6808 43.8085M6.64539 76.3262C6.64539 76.3262 16.8843 71.1705 29.8723 64.6566M6.64539 76.3262V52.1702L29.8723 40.5567V64.6566M48.4539 55.3538C57.0113 51.0786 65.3306 46.9376 71.6808 43.8085M48.4539 55.3538V31.2659L71.6808 19.6525L71.6808 43.8085" stroke="#B9B9B9" stroke-width="1.5"/>
<path d="M67.0355 12.2198L2 44.7376L9.80426 48.6397L74.8397 16.122L67.0355 12.2198Z" fill="white"/>
<path d="M9.80426 48.6397L2 44.7376V59.6028L9.80426 63.505V48.6397Z" fill="white"/>
<path d="M74.8397 16.122L9.80426 48.6397V63.505C9.80426 63.505 14.1893 61.2969 20.8603 57.9451V54.1677L74.8397 27.178V16.122Z" fill="white"/>
<path d="M28.6645 58.0698L20.8603 54.1677V57.9451V69.033L28.6645 72.9351V58.0698Z" fill="white"/>
<path d="M93.7 25.5521L85.8957 21.65L74.8397 27.178L20.8603 54.1677L28.6645 58.0698L93.7 25.5521Z" fill="white"/>
<path d="M93.7 25.5521L28.6645 58.0698V72.9351C28.6645 72.9351 33.0496 70.727 39.7206 67.3752V63.5979L93.7 36.6081V25.5521Z" fill="white"/>
<path d="M112.56 34.9823L104.756 31.0801L93.7 36.6081L39.7206 63.5979L47.5248 67.5L112.56 34.9823Z" fill="white"/>
<path d="M47.5248 67.5L39.7206 63.5979V67.3752V78.4631L47.5248 82.3652V67.5Z" fill="white"/>
<path d="M112.56 34.9823L47.5248 67.5V82.3652C47.5248 82.3652 51.9099 80.1572 58.5809 76.8054V73.028L112.56 46.0383V34.9823Z" fill="white"/>
<path d="M67.0355 77.2553L132.071 44.7376L123.616 40.5103L112.56 46.0383L58.5809 73.028L67.0355 77.2553Z" fill="white"/>
<path d="M132.071 44.7376L67.0355 77.2553V92.1206C67.0355 92.1206 110.702 70.1324 132.071 59.6028V44.7376Z" fill="white"/>
<path d="M67.0355 77.2553L58.5809 73.028V76.8054V87.8932L67.0355 92.1206V77.2553Z" fill="white"/>
<path d="M132.071 44.7376L67.0355 77.2553M132.071 44.7376L123.616 40.5103L112.56 46.0383M132.071 44.7376V59.6028C110.702 70.1324 67.0355 92.1206 67.0355 92.1206M67.0355 77.2553L58.5809 73.028M67.0355 77.2553V92.1206M2 44.7376L67.0355 12.2198L74.8397 16.122M2 44.7376L9.80426 48.6397M2 44.7376V59.6028L9.80426 63.505M74.8397 16.122L9.80426 48.6397M74.8397 16.122V27.178M9.80426 48.6397V63.505M20.8603 54.1677L28.6645 58.0698M20.8603 54.1677V57.9451M20.8603 54.1677L74.8397 27.178M93.7 25.5521L85.8957 21.65L74.8397 27.178M93.7 25.5521L28.6645 58.0698M93.7 25.5521V36.6081M28.6645 58.0698V72.9351M39.7206 63.5979L47.5248 67.5M39.7206 63.5979V67.3752M39.7206 63.5979L93.7 36.6081M112.56 34.9823L104.756 31.0801L93.7 36.6081M112.56 34.9823L47.5248 67.5M112.56 34.9823V46.0383M47.5248 67.5V82.3652M58.5809 73.028V76.8054M58.5809 73.028L112.56 46.0383M9.80426 63.505C9.80426 63.505 14.1893 61.2969 20.8603 57.9451M28.6645 72.9351L20.8603 69.033V57.9451M28.6645 72.9351C28.6645 72.9351 33.0496 70.727 39.7206 67.3752M47.5248 82.3652L39.7206 78.4631V67.3752M47.5248 82.3652C47.5248 82.3652 51.9099 80.1572 58.5809 76.8054M67.0355 92.1206L58.5809 87.8933V76.8054" stroke="#212121" stroke-width="2"/>
<path d="M67.0354 2.92908L115.348 27.0851L67.0354 51.2411L18.7234 27.0851L67.0354 2.92908Z" fill="white"/>
<path d="M18.7234 36.3759L67.0354 60.5319V51.2411L18.7234 27.0851V36.3759Z" fill="white"/>
<path d="M67.0354 60.5319L115.348 36.3759V27.0851L67.0354 51.2411V60.5319Z" fill="white"/>
<path d="M67.0354 60.5319L115.348 36.3759V27.0851M67.0354 60.5319L18.7234 36.3759V27.0851M67.0354 60.5319V51.2411M115.348 27.0851L67.0354 2.92908L18.7234 27.0851M115.348 27.0851L67.0354 51.2411M67.0354 51.2411L18.7234 27.0851" stroke="#212121" stroke-width="2"/>
</svg>
